<svg width="48" height="58" viewBox="0 0 48 58" fill="none" xmlns="http://www.w3.org/2000/svg">
<mask id="path-1-inside-1_95_2" fill="white">
<path d="M12.025 56.5044C10.6656 57.1065 9.38463 57.3712 7.89508 57.2688C5.60166 57.1053 3.46731 56.0214 1.96538 54.2575C0.56552 52.5941 -0.132831 50.4397 0.0209182 48.259C0.180713 46.2075 1.41531 43.2817 2.18881 41.2856L4.38866 35.6452L10.7563 19.3858L14.3642 10.039C15.0525 8.2609 15.7011 6.4802 16.4977 4.74794C18.0556 1.35896 21.1592 -0.27046 24.7742 0.0366071L24.5472 0.123109C24.4376 0.758541 24.2682 1.65903 24.3985 2.29242C21.7724 2.20095 19.2721 3.57204 18.2052 6.06636C17.1816 8.45958 16.2797 10.9133 15.3438 13.3441L10.2841 26.4785L5.37132 39.1147C3.80763 43.1226 0.369012 49.2029 3.97851 52.9964C5.7806 54.8905 7.99887 55.1761 10.4142 54.473C10.6839 55.229 11.2519 56.2077 12.025 56.5044Z"/>
<path d="M10.8387 54.2901C12.8209 53.5279 13.8342 52.4426 14.7491 50.4203C16.3098 46.9836 16.7663 42.4338 19.9526 40.1385C22.2194 38.5054 24.9876 38.2838 27.5044 39.4142C33.9433 42.3065 31.4218 53.5734 39.1618 54.6237L39.0826 54.7355C40.296 55.283 42.1238 53.564 41.6886 55.7912C41.651 55.9835 41.62 56.6833 41.6862 56.8407L41.794 56.8821L41.8064 56.9647C41.312 57.0301 40.0485 57.1811 39.5908 57.2903C38.6694 57.2475 37.8048 57.098 36.9581 56.7517C31.8286 54.6542 31.2792 49.7718 29.3815 45.079C28.665 43.3072 27.3726 41.9755 25.6446 41.3821C24.6168 41.0293 23.2126 41.169 22.2334 41.6738C18.998 43.3422 18.4847 47.0328 17.3921 50.2416C16.3679 53.2493 15.199 55.0364 12.4521 56.408C11.6778 56.0987 11.1088 55.0783 10.8387 54.2901Z"/>
<path d="M34.8913 12.3872L43.5935 35.088L45.9878 41.3556C47.3114 44.821 48.9271 48.4192 47.3453 52.1194C46.4416 54.2464 44.7506 55.9165 42.6456 56.7611C41.7007 57.1331 40.4542 57.3656 39.4415 57.2681C39.8879 57.1644 41.1205 57.021 41.6028 56.9589L41.5907 56.8805L41.4855 56.8412C41.4209 56.6917 41.4511 56.0273 41.4879 55.8446C41.9123 53.7297 40.1294 55.3621 38.9458 54.8422L39.023 54.736C42.1378 55.0563 44.8577 53.0578 45.5238 49.895C45.6832 49.1378 45.7071 48.5665 45.5571 47.8008C45.147 45.7045 44.3883 43.6923 43.6548 41.6966C42.9141 39.6569 42.1586 37.6229 41.3883 35.5948C39.0185 29.3259 36.5652 22.7513 34.0645 16.5436C34.3569 15.9139 34.3382 15.0631 34.7208 14.3531C34.6764 13.9013 34.6204 13.4213 34.6252 12.9686C34.6294 12.5782 34.6499 12.6289 34.8913 12.3872Z"/>
<path d="M25.1628 0C31.3153 0.756659 32.1106 6.3981 34.0645 11.466C33.8375 11.6997 33.8182 11.6507 33.8143 12.0281C33.8098 12.4658 33.8624 12.9297 33.9042 13.3665C33.5444 14.0528 33.562 14.8752 33.287 15.4839C32.4724 13.3649 31.7326 11.1547 30.9242 9.02867C29.5303 5.3632 28.7985 2.92793 24.8175 2.15885C24.6978 1.55269 24.8535 0.690903 24.9542 0.082784L25.1628 0Z"/>
</mask>
<path d="M12.025 56.5044C10.6656 57.1065 9.38463 57.3712 7.89508 57.2688C5.60166 57.1053 3.46731 56.0214 1.96538 54.2575C0.56552 52.5941 -0.132831 50.4397 0.0209182 48.259C0.180713 46.2075 1.41531 43.2817 2.18881 41.2856L4.38866 35.6452L10.7563 19.3858L14.3642 10.039C15.0525 8.2609 15.7011 6.4802 16.4977 4.74794C18.0556 1.35896 21.1592 -0.27046 24.7742 0.0366071L24.5472 0.123109C24.4376 0.758541 24.2682 1.65903 24.3985 2.29242C21.7724 2.20095 19.2721 3.57204 18.2052 6.06636C17.1816 8.45958 16.2797 10.9133 15.3438 13.3441L10.2841 26.4785L5.37132 39.1147C3.80763 43.1226 0.369012 49.2029 3.97851 52.9964C5.7806 54.8905 7.99887 55.1761 10.4142 54.473C10.6839 55.229 11.2519 56.2077 12.025 56.5044Z" fill="white"/>
<path d="M10.8387 54.2901C12.8209 53.5279 13.8342 52.4426 14.7491 50.4203C16.3098 46.9836 16.7663 42.4338 19.9526 40.1385C22.2194 38.5054 24.9876 38.2838 27.5044 39.4142C33.9433 42.3065 31.4218 53.5734 39.1618 54.6237L39.0826 54.7355C40.296 55.283 42.1238 53.564 41.6886 55.7912C41.651 55.9835 41.62 56.6833 41.6862 56.8407L41.794 56.8821L41.8064 56.9647C41.312 57.0301 40.0485 57.1811 39.5908 57.2903C38.6694 57.2475 37.8048 57.098 36.9581 56.7517C31.8286 54.6542 31.2792 49.7718 29.3815 45.079C28.665 43.3072 27.3726 41.9755 25.6446 41.3821C24.6168 41.0293 23.2126 41.169 22.2334 41.6738C18.998 43.3422 18.4847 47.0328 17.3921 50.2416C16.3679 53.2493 15.199 55.0364 12.4521 56.408C11.6778 56.0987 11.1088 55.0783 10.8387 54.2901Z" fill="white"/>
<path d="M34.8913 12.3872L43.5935 35.088L45.9878 41.3556C47.3114 44.821 48.9271 48.4192 47.3453 52.1194C46.4416 54.2464 44.7506 55.9165 42.6456 56.7611C41.7007 57.1331 40.4542 57.3656 39.4415 57.2681C39.8879 57.1644 41.1205 57.021 41.6028 56.9589L41.5907 56.8805L41.4855 56.8412C41.4209 56.6917 41.4511 56.0273 41.4879 55.8446C41.9123 53.7297 40.1294 55.3621 38.9458 54.8422L39.023 54.736C42.1378 55.0563 44.8577 53.0578 45.5238 49.895C45.6832 49.1378 45.7071 48.5665 45.5571 47.8008C45.147 45.7045 44.3883 43.6923 43.6548 41.6966C42.9141 39.6569 42.1586 37.6229 41.3883 35.5948C39.0185 29.3259 36.5652 22.7513 34.0645 16.5436C34.3569 15.9139 34.3382 15.0631 34.7208 14.3531C34.6764 13.9013 34.6204 13.4213 34.6252 12.9686C34.6294 12.5782 34.6499 12.6289 34.8913 12.3872Z" fill="white"/>
<path d="M25.1628 0C31.3153 0.756659 32.1106 6.3981 34.0645 11.466C33.8375 11.6997 33.8182 11.6507 33.8143 12.0281C33.8098 12.4658 33.8624 12.9297 33.9042 13.3665C33.5444 14.0528 33.562 14.8752 33.287 15.4839C32.4724 13.3649 31.7326 11.1547 30.9242 9.02867C29.5303 5.3632 28.7985 2.92793 24.8175 2.15885C24.6978 1.55269 24.8535 0.690903 24.9542 0.082784L25.1628 0Z" fill="white"/>
<path d="M12.025 56.5044L14.0496 61.0762L25.1185 56.1743L13.8166 51.8365L12.025 56.5044ZM7.89508 57.2688L7.53947 62.2562L7.55214 62.257L7.89508 57.2688ZM1.96538 54.2575L-1.8602 57.477L-1.8509 57.488L-1.84155 57.499L1.96538 54.2575ZM0.0209182 48.259L-4.96398 47.8707L-4.96541 47.889L-4.9667 47.9073L0.0209182 48.259ZM2.18881 41.2856L-2.46945 39.4688L-2.47341 39.479L2.18881 41.2856ZM4.38866 35.6452L-0.267053 33.8219L-0.269593 33.8284L4.38866 35.6452ZM10.7563 19.3858L15.412 21.2091L15.4164 21.1977L15.4208 21.1863L10.7563 19.3858ZM14.3642 10.039L9.70133 8.23404L9.69963 8.23843L14.3642 10.039ZM16.4977 4.74794L21.0404 6.83678L21.0406 6.83636L16.4977 4.74794ZM24.7742 0.0366071L26.5544 4.70894L25.1974 -4.94545L24.7742 0.0366071ZM24.5472 0.123109L22.7669 -4.54922L20.104 -3.53461L19.6199 -0.726403L24.5472 0.123109ZM24.3985 2.29242L24.2244 7.28939L30.5765 7.51062L29.2959 1.28505L24.3985 2.29242ZM18.2052 6.06636L13.608 4.10004L13.608 4.10019L18.2052 6.06636ZM15.3438 13.3441L20.0096 15.1414L20.0099 15.1406L15.3438 13.3441ZM10.2841 26.4785L14.9443 28.2903L14.9471 28.2831L14.9499 28.2759L10.2841 26.4785ZM5.37132 39.1147L10.0294 40.932L10.0315 40.9265L5.37132 39.1147ZM3.97851 52.9964L7.60088 49.5499L7.60079 49.5498L3.97851 52.9964ZM10.4142 54.473L15.1237 52.7934L13.5409 48.3552L9.01672 49.6722L10.4142 54.473ZM10.8387 54.2901L9.04439 49.6231L4.54685 51.3523L6.10862 55.9107L10.8387 54.2901ZM14.7491 50.4203L10.1965 48.3529L10.1936 48.3594L14.7491 50.4203ZM19.9526 40.1385L22.8751 44.1954L22.8752 44.1953L19.9526 40.1385ZM27.5044 39.4142L29.5531 34.8532L29.5531 34.8532L27.5044 39.4142ZM39.1618 54.6237L43.2422 57.5134L48.0115 50.7788L39.8341 49.6691L39.1618 54.6237ZM39.0826 54.7355L35.0022 51.8459L31.4956 56.7975L37.0262 59.293L39.0826 54.7355ZM41.6886 55.7912L46.5956 56.751L46.5958 56.75L41.6886 55.7912ZM41.6862 56.8407L37.077 58.7787L37.9039 60.7453L39.8958 61.5092L41.6862 56.8407ZM41.794 56.8821L46.7386 56.1396L46.3058 53.2573L43.5844 52.2136L41.794 56.8821ZM41.8064 56.9647L42.4621 61.9215L47.5066 61.2543L46.751 56.2222L41.8064 56.9647ZM39.5908 57.2903L39.3591 62.2849L40.0644 62.3176L40.7512 62.1538L39.5908 57.2903ZM36.9581 56.7517L38.8509 52.1239L38.8506 52.1237L36.9581 56.7517ZM29.3815 45.079L24.7461 46.9535L24.7461 46.9535L29.3815 45.079ZM25.6446 41.3821L27.2686 36.6532L27.2681 36.653L25.6446 41.3821ZM22.2334 41.6738L19.9424 37.2295L19.9418 37.2299L22.2334 41.6738ZM17.3921 50.2416L22.1252 51.8534L22.1253 51.8532L17.3921 50.2416ZM12.4521 56.408L10.5971 61.0512L12.6796 61.8832L14.6859 60.8813L12.4521 56.408ZM34.8913 12.3872L39.56 10.5974L36.8002 3.3982L31.3528 8.85452L34.8913 12.3872ZM43.5935 35.088L48.2642 33.3037L48.2622 33.2983L43.5935 35.088ZM45.9878 41.3556L50.6587 39.5716L50.6586 39.5712L45.9878 41.3556ZM47.3453 52.1194L42.7478 50.154L42.7434 50.1642L47.3453 52.1194ZM42.6456 56.7611L44.4773 61.4135L44.4924 61.4075L44.5074 61.4015L42.6456 56.7611ZM39.4415 57.2681L38.3103 52.3978L38.9624 62.2451L39.4415 57.2681ZM41.6028 56.9589L42.2413 61.918L47.3258 61.2633L46.5443 56.1967L41.6028 56.9589ZM41.5907 56.8805L46.5322 56.1183L46.0854 53.2215L43.3396 52.1963L41.5907 56.8805ZM41.4855 56.8412L36.8953 58.8238L37.7403 60.78L39.7366 61.5254L41.4855 56.8412ZM41.4879 55.8446L46.3899 56.8296L46.3901 56.8285L41.4879 55.8446ZM38.9458 54.8422L34.9024 51.9009L31.2496 56.9226L36.9349 59.42L38.9458 54.8422ZM39.023 54.736L39.5345 49.7622L36.6722 49.4679L34.9796 51.7948L39.023 54.736ZM45.5238 49.895L50.4165 50.9255L50.4166 50.9248L45.5238 49.895ZM45.5571 47.8008L40.6502 48.7609L40.6503 48.7616L45.5571 47.8008ZM43.6548 41.6966L38.9551 43.4032L38.9584 43.4123L38.9617 43.4214L43.6548 41.6966ZM41.3883 35.5948L36.7113 37.3628L36.7141 37.3703L41.3883 35.5948ZM34.0645 16.5436L29.5297 14.4376L28.6172 16.4024L29.4267 18.4119L34.0645 16.5436ZM34.7208 14.3531L39.1224 16.725L39.8461 15.382L39.6968 13.8637L34.7208 14.3531ZM34.6252 12.9686L29.6255 12.9145L29.6254 12.9158L34.6252 12.9686ZM25.1628 0L25.7731 -4.96261L24.5055 -5.11851L23.3184 -4.64739L25.1628 0ZM34.0645 11.466L37.6513 14.9496L39.8811 12.6537L38.7298 9.66739L34.0645 11.466ZM33.8143 12.0281L28.8145 11.9755L28.8145 11.9767L33.8143 12.0281ZM33.9042 13.3665L38.3326 15.688L39.0231 14.3707L38.8815 12.8902L33.9042 13.3665ZM33.287 15.4839L28.6201 17.2782L32.9155 28.4506L37.8436 17.5424L33.287 15.4839ZM30.9242 9.02867L35.5977 7.25155L35.5977 7.25149L30.9242 9.02867ZM24.8175 2.15885L19.9123 3.12753L20.5644 6.42962L23.8691 7.06808L24.8175 2.15885ZM24.9542 0.082784L23.1098 -4.5646L20.4828 -3.52205L20.0213 -0.733719L24.9542 0.082784ZM12.025 56.5044L10.0004 51.9327C9.29528 52.2449 8.82416 52.3209 8.23802 52.2806L7.89508 57.2688L7.55214 62.257C9.94509 62.4216 12.0359 61.968 14.0496 61.0762L12.025 56.5044ZM7.89508 57.2688L8.25068 52.2815C7.30667 52.2142 6.41198 51.7673 5.77231 51.016L1.96538 54.2575L-1.84155 57.499C0.522645 60.2756 3.89665 61.9964 7.53947 62.2562L7.89508 57.2688ZM1.96538 54.2575L5.79097 51.0381C5.23296 50.375 4.9456 49.5033 5.00854 48.6106L0.0209182 48.259L-4.9667 47.9073C-5.21126 51.3761 -4.10192 54.8132 -1.8602 57.477L1.96538 54.2575ZM0.0209182 48.259L5.00582 48.6473C5.03408 48.2844 5.20427 47.5375 5.60321 46.3768C5.98671 45.2611 6.42107 44.2017 6.85103 43.0922L2.18881 41.2856L-2.47341 39.479C-2.81695 40.3656 -3.38663 41.7672 -3.85376 43.1263C-4.30544 44.4404 -4.83245 46.1821 -4.96398 47.8707L0.0209182 48.259ZM2.18881 41.2856L6.84706 43.1024L9.0469 37.462L4.38866 35.6452L-0.269593 33.8284L-2.46944 39.4688L2.18881 41.2856ZM4.38866 35.6452L9.04436 37.4685L15.412 21.2091L10.7563 19.3858L6.10057 17.5625L-0.267048 33.8219L4.38866 35.6452ZM10.7563 19.3858L15.4208 21.1863L19.0287 11.8395L14.3642 10.039L9.69963 8.23843L6.09172 17.5852L10.7563 19.3858ZM14.3642 10.039L19.027 11.8439C19.7643 9.93938 20.3284 8.38521 21.0404 6.83678L16.4977 4.74794L11.9549 2.65909C11.0738 4.57519 10.3407 6.58242 9.70133 8.23404L14.3642 10.039ZM16.4977 4.74794L21.0406 6.83636C21.6538 5.50257 22.6775 4.87651 24.351 5.01867L24.7742 0.0366071L25.1974 -4.94545C19.641 -5.41743 14.4574 -2.78464 11.9547 2.65951L16.4977 4.74794ZM24.7742 0.0366071L22.9939 -4.63573L22.7669 -4.54922L24.5472 0.123109L26.3274 4.79544L26.5544 4.70894L24.7742 0.0366071ZM24.5472 0.123109L19.6199 -0.726403C19.5771 -0.478317 19.4708 0.101695 19.4095 0.693116C19.3536 1.23213 19.2798 2.22456 19.501 3.29979L24.3985 2.29242L29.2959 1.28505C29.3242 1.42229 29.3372 1.53162 29.3436 1.60447C29.3501 1.67811 29.3512 1.73009 29.3513 1.75585C29.3515 1.80159 29.3487 1.79644 29.3562 1.72394C29.3634 1.65483 29.3761 1.55998 29.3972 1.42753C29.4198 1.28552 29.4418 1.16211 29.4745 0.972621L24.5472 0.123109ZM24.3985 2.29242L24.5725 -2.70455C20.1432 -2.85882 15.5848 -0.521547 13.608 4.10004L18.2052 6.06636L22.8023 8.03267C22.8984 7.8081 23.0478 7.64041 23.2637 7.51264C23.496 7.37515 23.8275 7.27557 24.2244 7.28939L24.3985 2.29242ZM18.2052 6.06636L13.608 4.10019C12.5366 6.60529 11.5767 9.21282 10.6777 11.5475L15.3438 13.3441L20.0099 15.1406C20.9828 12.6139 21.8267 10.3139 22.8024 8.03252L18.2052 6.06636ZM15.3438 13.3441L10.6781 11.5467L5.61832 24.6811L10.2841 26.4785L14.9499 28.2759L20.0096 15.1414L15.3438 13.3441ZM10.2841 26.4785L5.6239 24.6667L0.711138 37.3028L5.37132 39.1147L10.0315 40.9265L14.9443 28.2903L10.2841 26.4785ZM5.37132 39.1147L0.713285 37.2973C0.170256 38.6892 -1.4177 42.0386 -2.12472 44.9598C-2.88104 48.0847 -3.19521 52.7106 0.356226 56.443L3.97851 52.9964L7.60079 49.5498C7.54273 49.4888 7.14313 49.1778 7.59466 47.3121C8.0955 45.2428 9.0087 43.5481 10.0294 40.932L5.37132 39.1147ZM3.97851 52.9964L0.356135 56.4429C1.91917 58.0857 3.82378 59.1713 5.96874 59.6081C8.04926 60.0317 10.0537 59.7855 11.8117 59.2737L10.4142 54.473L9.01672 49.6722C8.35935 49.8636 8.04702 49.8261 7.96404 49.8092C7.92566 49.8014 7.89887 49.7914 7.86516 49.7724C7.82899 49.7519 7.73816 49.6942 7.60088 49.5499L3.97851 52.9964ZM10.4142 54.473L5.70475 56.1525C5.96697 56.8878 6.37959 57.7625 6.98052 58.5927C7.5372 59.3618 8.57574 60.5362 10.2334 61.1724L12.025 56.5044L13.8166 51.8365C14.286 52.0166 14.6015 52.2513 14.7761 52.404C14.9515 52.5573 15.0466 52.6815 15.0811 52.7292C15.1188 52.7813 15.1301 52.8059 15.1263 52.7983C15.1231 52.792 15.1212 52.7865 15.1237 52.7934L10.4142 54.473ZM10.8387 54.2901L12.633 58.957C14.1285 58.382 15.5241 57.5766 16.7409 56.3521C17.926 55.1593 18.7063 53.8037 19.3046 52.4813L14.7491 50.4203L10.1936 48.3594C9.87695 49.0593 9.69313 49.2575 9.64738 49.3035C9.63328 49.3177 9.5311 49.436 9.04439 49.6231L10.8387 54.2901ZM14.7491 50.4203L19.3016 52.4878C19.812 51.3639 20.2039 50.2135 20.5207 49.2535C20.8632 48.2155 21.1124 47.4209 21.4127 46.6341C22.0127 45.0618 22.4862 44.4756 22.8751 44.1954L19.9526 40.1385L17.03 36.0815C14.2327 38.0967 12.8849 40.933 12.0699 43.0687C11.6626 44.1358 11.3059 45.2665 11.0243 46.1199C10.717 47.0514 10.4665 47.7584 10.1965 48.3529L14.7491 50.4203ZM19.9526 40.1385L22.8752 44.1953C23.6339 43.6488 24.4988 43.5454 25.4557 43.9753L27.5044 39.4142L29.5531 34.8532C25.4765 33.0221 20.805 33.3619 17.0299 36.0816L19.9526 40.1385ZM27.5044 39.4142L25.4557 43.9753C25.7282 44.0977 26.0757 44.3427 26.5433 45.2185C27.0935 46.2488 27.4622 47.4382 28.1187 49.3406C28.6802 50.968 29.5077 53.2799 31.0047 55.2429C32.6835 57.4442 35.1215 59.1213 38.4895 59.5783L39.1618 54.6237L39.8341 49.6691C39.3321 49.601 39.1828 49.4759 38.9563 49.1788C38.548 48.6435 38.1522 47.761 37.5717 46.0788C37.0862 44.6716 36.3942 42.4364 35.3644 40.5079C34.252 38.4248 32.5 36.1769 29.5531 34.8532L27.5044 39.4142ZM39.1618 54.6237L35.0814 51.7341L35.0022 51.8459L39.0826 54.7355L43.1631 57.6252L43.2422 57.5134L39.1618 54.6237ZM39.0826 54.7355L37.0262 59.293C38.6381 60.0204 40.1335 59.8618 40.7915 59.7649C41.1541 59.7115 41.4788 59.6392 41.6274 59.6066C41.8478 59.5582 41.8103 59.5685 41.7437 59.5784C41.7033 59.5845 41.2219 59.6649 40.5629 59.5563C39.7821 59.4278 38.6308 59.0058 37.739 57.8967C36.928 56.8879 36.7885 55.869 36.7616 55.4481C36.7341 55.0189 36.794 54.7681 36.7814 54.8323L41.6886 55.7912L46.5958 56.75C46.6921 56.2574 46.79 55.5732 46.7412 54.8095C46.6928 54.0542 46.4725 52.7999 45.5324 51.6306C44.5115 50.3609 43.1828 49.8531 42.1876 49.6892C41.3142 49.5454 40.5815 49.641 40.264 49.6885C39.9203 49.7399 39.5799 49.8179 39.4829 49.8392C39.3141 49.8763 39.3069 49.8757 39.3344 49.8716C39.369 49.8665 39.5643 49.8383 39.8551 49.8554C40.1595 49.8733 40.6204 49.9439 41.1391 50.178L39.0826 54.7355ZM41.6886 55.7912L36.7816 54.8313C36.6744 55.3796 36.6545 55.9685 36.6494 56.2335C36.6458 56.4232 36.6459 56.6802 36.6636 56.957C36.6651 56.9798 36.6905 57.8595 37.077 58.7787L41.6862 56.8407L46.2953 54.9027C46.4239 55.2085 46.494 55.4636 46.5301 55.6107C46.5692 55.7695 46.5922 55.8996 46.6056 55.9849C46.6315 56.1507 46.6402 56.2717 46.6431 56.3177C46.6492 56.4131 46.647 56.4536 46.6476 56.4246C46.6479 56.4065 46.649 56.3894 46.6489 56.3897C46.6489 56.3904 46.6473 56.4123 46.6428 56.452C46.6402 56.4746 46.6272 56.5897 46.5956 56.751L41.6886 55.7912ZM41.6862 56.8407L39.8958 61.5092L40.0036 61.5505L41.794 56.8821L43.5844 52.2136L43.4766 52.1723L41.6862 56.8407ZM41.794 56.8821L36.8495 57.6246L36.8619 57.7071L41.8064 56.9647L46.751 56.2222L46.7386 56.1396L41.794 56.8821ZM41.8064 56.9647L41.1508 52.0078C40.9361 52.0362 39.22 52.2384 38.4304 52.4268L39.5908 57.2903L40.7512 62.1538C40.6728 62.1725 40.6828 62.1666 40.8517 62.1395C40.9894 62.1175 41.1641 62.0921 41.3635 62.0648C41.8033 62.0045 42.1293 61.9655 42.4621 61.9215L41.8064 56.9647ZM39.5908 57.2903L39.8224 52.2957C39.3056 52.2717 39.0343 52.1989 38.8509 52.1239L36.9581 56.7517L35.0653 61.3796C36.5753 61.9972 38.0332 62.2234 39.3591 62.2849L39.5908 57.2903ZM36.9581 56.7517L38.8506 52.1237C37.7184 51.6608 37.0848 50.9863 36.4463 49.6855C36.0846 48.9485 35.7618 48.0846 35.3691 46.9511C35.0046 45.8987 34.5534 44.5315 34.0168 43.2046L29.3815 45.079L24.7461 46.9535C25.1584 47.9729 25.4875 48.9759 25.92 50.2243C26.3244 51.3917 26.8154 52.7593 27.4694 54.0917C28.8624 56.9297 31.0683 59.7451 35.0656 61.3797L36.9581 56.7517ZM29.3815 45.079L34.0168 43.2046C32.8327 40.2765 30.5458 37.7787 27.2686 36.6532L25.6446 41.3821L24.0205 46.111C24.1994 46.1724 24.4972 46.338 24.7461 46.9535L29.3815 45.079ZM25.6446 41.3821L27.2681 36.653C24.8387 35.819 22.0232 36.1569 19.9424 37.2295L22.2334 41.6738L24.5244 46.1181C24.4268 46.1684 24.3699 46.1842 24.3622 46.1863C24.352 46.1891 24.3563 46.1874 24.367 46.1864C24.3783 46.1854 24.367 46.1878 24.3269 46.1839C24.2901 46.1803 24.183 46.1668 24.0211 46.1112L25.6446 41.3821ZM22.2334 41.6738L19.9418 37.2299C16.9385 38.7786 15.3604 41.2424 14.4273 43.3786C13.9738 44.4167 13.6388 45.4546 13.374 46.3187C13.0814 47.2734 12.8995 47.9237 12.659 48.6301L17.3921 50.2416L22.1253 51.8532C22.4311 50.9551 22.723 49.9408 22.9351 49.2489C23.1749 48.4664 23.3753 47.8757 23.5911 47.3815C23.9967 46.4531 24.2929 46.2374 24.525 46.1177L22.2334 41.6738ZM17.3921 50.2416L12.659 48.6299C12.2243 49.9066 11.8883 50.521 11.6028 50.8926C11.3698 51.196 11.0231 51.5328 10.2183 51.9347L12.4521 56.408L14.6859 60.8813C16.6279 59.9115 18.2392 58.669 19.5334 56.9841C20.7752 55.3673 21.5358 53.5844 22.1252 51.8534L17.3921 50.2416ZM12.4521 56.408L14.3071 51.7649C14.7908 51.9581 15.1085 52.2065 15.2766 52.3595C15.4464 52.514 15.5343 52.6352 15.5613 52.674C15.6033 52.7344 15.5852 52.7172 15.5688 52.6695L10.8387 54.2901L6.10862 55.9107C6.36233 56.6511 6.76367 57.5382 7.35127 58.3832C7.88851 59.1558 8.91807 60.3804 10.5971 61.0512L12.4521 56.408ZM34.8913 12.3872L30.2226 14.1769L38.9247 36.8777L43.5935 35.088L48.2622 33.2983L39.56 10.5974L34.8913 12.3872ZM43.5935 35.088L38.9227 36.8724L41.3171 43.1399L45.9878 41.3556L50.6586 39.5712L48.2642 33.3037L43.5935 35.088ZM45.9878 41.3556L41.3169 43.1396C42.0641 45.0958 42.5922 46.3697 42.8599 47.663C43.0925 48.7866 43.0229 49.5104 42.7478 50.154L47.3453 52.1194L51.9428 54.0848C54.4876 48.132 51.7179 42.3448 50.6587 39.5716L45.9878 41.3556ZM47.3453 52.1194L42.7434 50.1642C42.3486 51.0934 41.6288 51.7816 40.7838 52.1206L42.6456 56.7611L44.5074 61.4015C47.8725 60.0514 50.5345 57.3994 51.9472 54.0746L47.3453 52.1194ZM42.6456 56.7611L40.8139 52.1087C40.6867 52.1587 40.4798 52.22 40.2493 52.2583C40.007 52.2986 39.8914 52.2883 39.9206 52.2911L39.4415 57.2681L38.9624 62.2451C40.9226 62.4338 42.9671 62.0081 44.4773 61.4135L42.6456 56.7611ZM39.4415 57.2681L40.5727 62.1385C40.4959 62.1563 40.5056 62.1508 40.6704 62.125C40.8047 62.1041 40.9751 62.08 41.1696 62.054C41.5986 61.9968 41.9168 61.9598 42.2413 61.918L41.6028 56.9589L40.9643 51.9999C40.7548 52.0268 39.0809 52.2188 38.3103 52.3978L39.4415 57.2681ZM41.6028 56.9589L46.5443 56.1967L46.5322 56.1183L41.5907 56.8805L36.6491 57.6427L36.6612 57.7211L41.6028 56.9589ZM41.5907 56.8805L43.3396 52.1963L43.2344 52.1571L41.4855 56.8412L39.7366 61.5254L39.8418 61.5647L41.5907 56.8805ZM41.4855 56.8412L46.0756 54.8587C46.2101 55.1699 46.2837 55.4306 46.3221 55.5824C46.3634 55.7458 46.3878 55.8802 46.4021 55.969C46.4298 56.1416 46.4393 56.269 46.4426 56.3198C46.4496 56.4247 46.4473 56.4748 46.4477 56.4535C46.4479 56.4434 46.4486 56.4344 46.448 56.442C46.4477 56.4465 46.4457 56.4722 46.4406 56.5159C46.4375 56.5421 46.4234 56.6625 46.3899 56.8296L41.4879 55.8446L36.5858 54.8595C36.4743 55.4144 36.4547 56.0017 36.4496 56.2572C36.446 56.4436 36.446 56.6992 36.4642 56.9765C36.4655 56.9952 36.4919 57.8898 36.8953 58.8238L41.4855 56.8412ZM41.4879 55.8446L46.3901 56.8285C46.4871 56.345 46.589 55.6592 46.5383 54.8876C46.4876 54.1173 46.2556 52.8523 45.2913 51.6848C44.2575 50.4332 42.9339 49.952 41.9735 49.7981C41.1225 49.6617 40.409 49.7523 40.0992 49.7975C39.7639 49.8463 39.4317 49.9204 39.3371 49.9406C39.1726 49.9758 39.1656 49.9752 39.1924 49.9713C39.2262 49.9665 39.416 49.9397 39.6988 49.956C39.9936 49.9729 40.4448 50.0395 40.9566 50.2643L38.9458 54.8422L36.9349 59.42C38.5141 60.1136 39.9723 59.9618 40.6116 59.8701C40.9654 59.8194 41.2822 59.7507 41.4272 59.7197C41.6422 59.6738 41.6055 59.6836 41.5405 59.693C41.5011 59.6988 41.0327 59.775 40.3908 59.6721C39.6395 59.5516 38.4889 59.152 37.5811 58.0529C36.7427 57.0379 36.5896 55.9964 36.5598 55.5436C36.5436 55.2969 36.5556 55.1124 36.5649 55.0149C36.5699 54.9626 36.5753 54.9235 36.579 54.8992C36.5828 54.8748 36.5854 54.8615 36.5856 54.8606L41.4879 55.8446ZM38.9458 54.8422L42.9892 57.7834L43.0664 57.6772L39.023 54.736L34.9796 51.7948L34.9024 51.9009L38.9458 54.8422ZM39.023 54.736L38.5115 59.7098C44.2409 60.299 49.2376 56.5227 50.4165 50.9255L45.5238 49.895L40.6311 48.8645C40.542 49.288 40.3538 49.5013 40.2129 49.6058C40.0733 49.7094 39.8622 49.7959 39.5345 49.7622L39.023 54.736ZM45.5238 49.895L50.4166 50.9248C50.6931 49.6112 50.7609 48.3564 50.464 46.84L45.5571 47.8008L40.6503 48.7616C40.6603 48.8127 40.6609 48.8272 40.6598 48.8149C40.6584 48.8004 40.657 48.7744 40.6576 48.7437C40.6583 48.714 40.6604 48.7007 40.6589 48.7129C40.6569 48.7281 40.6502 48.7741 40.631 48.8653L45.5238 49.895ZM45.5571 47.8008L50.4641 46.8407C49.9621 44.275 49.0429 41.8629 48.3478 39.9717L43.6548 41.6966L38.9617 43.4214C39.7337 45.5217 40.3319 47.1341 40.6502 48.7609L45.5571 47.8008ZM43.6548 41.6966L48.3545 39.9899C47.6055 37.9274 46.8416 35.8705 46.0624 33.8193L41.3883 35.5948L36.7141 37.3703C37.4757 39.3753 38.2227 41.3864 38.9551 43.4032L43.6548 41.6966ZM41.3883 35.5948L46.0653 33.8268C43.7074 27.5895 41.2288 20.9469 38.7023 14.6753L34.0645 16.5436L29.4267 18.4119C31.9016 24.5558 34.3296 31.0623 36.7113 37.3628L41.3883 35.5948ZM34.0645 16.5436L38.5993 18.6496C38.855 18.0991 38.9992 17.5969 39.0842 17.2608C39.1623 16.9517 39.2301 16.6112 39.2525 16.5044C39.2881 16.3344 39.2957 16.3146 39.2886 16.3381C39.278 16.3737 39.2313 16.523 39.1224 16.725L34.7208 14.3531L30.3192 11.9813C29.7481 13.041 29.5433 14.0801 29.4652 14.4525C29.4079 14.7259 29.4016 14.7605 29.3891 14.8102C29.3833 14.8329 29.4202 14.6733 29.5297 14.4376L34.0645 16.5436ZM34.7208 14.3531L39.6968 13.8637C39.6372 13.258 39.6237 13.1294 39.6249 13.0214L34.6252 12.9686L29.6254 12.9158C29.617 13.7133 29.7155 14.5445 29.7448 14.8426L34.7208 14.3531ZM34.6252 12.9686L39.6249 13.0226C39.6262 12.9033 39.6293 13.0828 39.6009 13.3263C39.5635 13.6473 39.4535 14.2856 39.0687 14.9981C38.717 15.6492 38.2962 16.0489 38.2547 16.0897C38.233 16.111 38.1994 16.143 38.2567 16.0884C38.2939 16.0531 38.3557 15.9939 38.4297 15.9198L34.8913 12.3872L31.3528 8.85452C31.3665 8.84083 31.3749 8.83298 31.3647 8.84269C31.3615 8.84575 31.3583 8.84882 31.352 8.85479C31.3466 8.85984 31.338 8.86804 31.3288 8.87676C31.3116 8.89322 31.2795 8.92386 31.2422 8.96053C31.1289 9.07199 30.6574 9.52873 30.2699 10.2461C29.8492 11.025 29.7183 11.739 29.6682 12.1678C29.6273 12.5192 29.6263 12.8387 29.6255 12.9145L34.6252 12.9686ZM25.1628 0L24.5524 4.96261C25.3151 5.0564 25.6905 5.26288 25.9098 5.42433C26.1606 5.60905 26.4711 5.93405 26.8383 6.5819C27.2228 7.26013 27.5812 8.12978 28.0032 9.31726C28.3679 10.3434 28.8875 11.9373 29.3992 13.2647L34.0645 11.466L38.7298 9.66739C38.2646 8.46076 37.952 7.44904 37.4258 5.96841C36.9569 4.64913 36.3656 3.11089 35.5379 1.65067C33.7218 -1.55328 30.7457 -4.35106 25.7731 -4.96261L25.1628 0ZM34.0645 11.466L30.4778 7.98248C30.4926 7.96719 30.5021 7.958 30.4932 7.96675C30.4903 7.96958 30.4874 7.97243 30.4814 7.97824C30.4764 7.98311 30.4681 7.99119 30.4593 7.99981C30.4428 8.01604 30.4116 8.04669 30.3752 8.08347C30.2624 8.19753 29.8041 8.65471 29.4295 9.36766C29.0259 10.1358 28.9021 10.8352 28.855 11.2502C28.8162 11.5919 28.8153 11.9024 28.8145 11.9755L33.8143 12.0281L38.814 12.0807C38.8152 11.9651 38.8182 12.1402 38.7912 12.3777C38.756 12.6884 38.6519 13.3147 38.282 14.0187C37.9412 14.6675 37.5305 15.0696 37.4853 15.1153C37.463 15.1378 37.4288 15.1712 37.4843 15.1169C37.5199 15.0821 37.5797 15.0233 37.6513 14.9496L34.0645 11.466ZM33.8143 12.0281L28.8145 11.9767C28.8066 12.7498 28.8995 13.5555 28.9269 13.8427L33.9042 13.3665L38.8815 12.8902C38.8254 12.3038 38.813 12.1817 38.814 12.0795L33.8143 12.0281ZM33.9042 13.3665L29.4758 11.045C28.9315 12.0833 28.7376 13.0976 28.6647 13.4551C28.6106 13.7202 28.605 13.7521 28.5935 13.7988C28.5884 13.8197 28.6243 13.6604 28.7305 13.4253L33.287 15.4839L37.8436 17.5424C38.0873 17.003 38.2241 16.5126 38.3043 16.1867C38.378 15.8866 38.4421 15.5559 38.463 15.4535C38.4965 15.2892 38.5032 15.2719 38.4959 15.2972C38.4852 15.3338 38.4395 15.4841 38.3326 15.688L33.9042 13.3665ZM33.287 15.4839L37.954 13.6896C37.5705 12.6921 37.2004 11.6621 36.8106 10.5735C36.4272 9.50268 36.0227 8.3693 35.5977 7.25155L30.9242 9.02867L26.2506 10.8058C26.634 11.8141 27.0036 12.8488 27.3959 13.9444C27.7818 15.0221 28.1889 16.1568 28.6201 17.2782L33.287 15.4839ZM30.9242 9.02867L35.5977 7.25149C35.0281 5.7537 34.2322 3.40023 32.87 1.54665C31.1897 -0.739744 28.8518 -2.15421 25.766 -2.75037L24.8175 2.15885L23.8691 7.06808C24.4077 7.17212 24.618 7.28961 24.6652 7.31822C24.6923 7.33461 24.7281 7.35445 24.812 7.46859C24.925 7.6223 25.0978 7.9127 25.3525 8.5016C25.621 9.12252 25.867 9.79696 26.2507 10.8059L30.9242 9.02867ZM24.8175 2.15885L29.7228 1.19017C29.749 1.32306 29.7612 1.42875 29.7671 1.499C29.7731 1.57008 29.7741 1.6203 29.7742 1.64529C29.7744 1.68974 29.7718 1.68544 29.7786 1.61659C29.7852 1.55098 29.7967 1.4607 29.8161 1.33426C29.8255 1.27243 29.836 1.20706 29.8481 1.13398C29.8541 1.09743 29.8602 1.0606 29.8668 1.02118C29.8731 0.983152 29.8802 0.940547 29.887 0.899287L24.9542 0.082784L20.0213 -0.733719C19.982 -0.496606 19.8842 0.059527 19.8278 0.626513C19.7764 1.14273 19.7083 2.09452 19.9123 3.12753L24.8175 2.15885ZM24.9542 0.082784L26.7986 4.73017L27.0072 4.64739L25.1628 0L23.3184 -4.64739L23.1098 -4.5646L24.9542 0.082784Z" fill="#DEC9F4" mask="url(#path-1-inside-1_95_2)"/>
</svg>
